<svg width="24" height="24" viewBox="0 0 24 24" fill="none" xmlns="http://www.w3.org/2000/svg">
<path d="M3.99994 6H19.9999L18.4199 20.22C18.3658 20.7094 18.133 21.1616 17.7662 21.49C17.3994 21.8184 16.9243 22 16.4319 22H7.56794C7.07557 22 6.6005 21.8184 6.23369 21.49C5.86687 21.1616 5.6341 20.7094 5.57994 20.22L3.99994 6Z" stroke="#F43030" stroke-width="2" stroke-linecap="round" stroke-linejoin="round"/>
<path d="M7.34494 3.147C7.50669 2.80397 7.76265 2.514 8.08294 2.31091C8.40324 2.10782 8.77468 2 9.15394 2H14.8459C15.2254 1.99981 15.597 2.10755 15.9175 2.31064C16.238 2.51374 16.4941 2.80381 16.6559 3.147L17.9999 6H5.99994L7.34494 3.147Z" stroke="#F43030" stroke-width="2" stroke-linecap="round" stroke-linejoin="round"/>
<path d="M2 6H22" stroke="#F43030" stroke-width="2" stroke-linecap="round" stroke-linejoin="round"/>
<path d="M9.99994 11V16" stroke="#F43030" stroke-width="2" stroke-linecap="round" stroke-linejoin="round"/>
<path d="M14 11V16" stroke="#F43030" stroke-width="2" stroke-linecap="round" stroke-linejoin="round"/>
</svg>
