<svg width="26" height="26" viewBox="0 0 26 26" fill="none" xmlns="http://www.w3.org/2000/svg">
<path d="M22.75 13C22.4627 13 22.1871 13.1141 21.984 13.3173C21.7808 13.5205 21.6667 13.796 21.6667 14.0833V20.5833C21.6667 20.8706 21.5525 21.1462 21.3494 21.3494C21.1462 21.5525 20.8706 21.6667 20.5833 21.6667H5.41666C5.12934 21.6667 4.85379 21.5525 4.65062 21.3494C4.44746 21.1462 4.33332 20.8706 4.33332 20.5833V5.41667C4.33332 5.12935 4.44746 4.8538 4.65062 4.65063C4.85379 4.44747 5.12934 4.33333 5.41666 4.33333H11.9167C12.204 4.33333 12.4795 4.2192 12.6827 4.01603C12.8859 3.81287 13 3.53732 13 3.25C13 2.96268 12.8859 2.68713 12.6827 2.48397C12.4795 2.2808 12.204 2.16667 11.9167 2.16667H5.41666C4.5547 2.16667 3.72805 2.50908 3.11856 3.11857C2.50907 3.72806 2.16666 4.55471 2.16666 5.41667V20.5833C2.16666 21.4453 2.50907 22.2719 3.11856 22.8814C3.72805 23.4909 4.5547 23.8333 5.41666 23.8333H20.5833C21.4453 23.8333 22.2719 23.4909 22.8814 22.8814C23.4909 22.2719 23.8333 21.4453 23.8333 20.5833V14.0833C23.8333 13.796 23.7192 13.5205 23.516 13.3173C23.3129 13.1141 23.0373 13 22.75 13ZM6.49999 13.8233V18.4167C6.49999 18.704 6.61413 18.9795 6.81729 19.1827C7.02046 19.3859 7.296 19.5 7.58332 19.5H12.1767C12.3192 19.5008 12.4606 19.4735 12.5926 19.4196C12.7245 19.3657 12.8446 19.2862 12.9458 19.1858L20.4425 11.6783L23.5192 8.66667C23.6207 8.56596 23.7013 8.44614 23.7563 8.31412C23.8113 8.18211 23.8396 8.04051 23.8396 7.8975C23.8396 7.75449 23.8113 7.61289 23.7563 7.48087C23.7013 7.34886 23.6207 7.22904 23.5192 7.12833L18.9258 2.48083C18.8251 2.37929 18.7053 2.2987 18.5733 2.2437C18.4413 2.1887 18.2997 2.16039 18.1567 2.16039C18.0136 2.16039 17.872 2.1887 17.74 2.2437C17.608 2.2987 17.4882 2.37929 17.3875 2.48083L14.3325 5.54667L6.81416 13.0542C6.71375 13.1554 6.63432 13.2754 6.5804 13.4074C6.52649 13.5394 6.49917 13.6808 6.49999 13.8233ZM18.1567 4.7775L21.2225 7.84333L19.6842 9.38167L16.6183 6.31583L18.1567 4.7775ZM8.66666 14.2675L15.0908 7.84333L18.1567 10.9092L11.7325 17.3333H8.66666V14.2675Z" fill="#225D6A"/>
</svg>
